<!DOCTYPE svg PUBLIC "-//W3C//DTD SVG 1.1//EN" "http://www.w3.org/Graphics/SVG/1.1/DTD/svg11.dtd">
<!-- Uploaded to: SVG Repo, www.svgrepo.com, Transformed by: SVG Repo Mixer Tools -->
<svg width="800px" height="800px" viewBox="0 0 18 18" xmlns="http://www.w3.org/2000/svg" fill="#000000">
<g id="SVGRepo_bgCarrier" stroke-width="0"/>
<g id="SVGRepo_tracerCarrier" stroke-linecap="round" stroke-linejoin="round"/>
<g id="SVGRepo_iconCarrier"> <path fill="#494c4e" d="M15.708 14.29a1.008 1.008 0 0 1 0 1.42 1.014 1.014 0 0 1-1.42 0L9 10.42l-5.288 5.29a1.014 1.014 0 0 1-1.42 0 1.008 1.008 0 0 1 0-1.42L7.58 9 2.293 3.712a1.004 1.004 0 0 1 1.42-1.42L9 7.582l5.288-5.292a1.004 1.004 0 0 1 1.42 1.42L10.418 9z"/> </g>
</svg>